<?xml version="1.0" standalone="no"?><!DOCTYPE svg PUBLIC "-//W3C//DTD SVG 1.1//EN" "http://www.w3.org/Graphics/SVG/1.1/DTD/svg11.dtd"><svg height="1080" node-id="1" sillyvg="true" template-height="1080" template-width="1080" version="1.1" viewBox="0 0 1080 1080" width="1080" xmlns="http://www.w3.org/2000/svg" xmlns:xlink="http://www.w3.org/1999/xlink"><defs node-id="20"></defs><path d="M 1039.00 912.41 C 1039.00 924.24 941.00 935.14 783.20 940.86 C 625.40 946.58 432.60 946.23 279.89 939.94 C 127.18 933.65 38.61 922.41 48.68 910.59 L 543.43 912.41 Z" fill="#f9f1cb" fill-rule="nonzero" id="path2214" node-id="7" stroke="none" target-height="35.98999" target-width="1000.39" target-x="38.61" target-y="910.59"></path><path d="M 496.85 676.79 C 496.85 676.79 523.37 738.53 544.20 751.00 C 565.03 763.47 729.82 766.15 745.72 766.15 C 761.62 766.15 778.11 765.59 778.11 765.59 L 776.11 722.97 C 776.11 722.97 610.11 720.32 594.75 718.97 C 579.39 717.62 562.75 710.45 554.03 687.72 C 545.31 664.99 498.53 571.05 498.53 571.05 Z" fill="#f9f1cb" fill-rule="nonzero" id="path2663" node-id="8" stroke="none" target-height="195.10004" target-width="281.25998" target-x="496.85" target-y="571.05"></path><path d="M 588.14 475.64 C 588.14 475.64 622.91 520.17 657.46 513.21 C 692.01 506.25 723.89 492.85 743.98 506.78 C 756.09 515.37 764.73 528.00 768.35 542.40 L 761.52 562.00 L 712.64 562.00 C 712.64 562.00 712.91 548.47 700.99 545.00 C 689.07 541.53 683.58 532.14 677.99 527.59 C 672.40 523.04 657.23 534.59 654.99 538.59 C 652.75 542.59 647.35 535.90 641.99 538.05 C 636.63 540.20 630.74 548.36 630.74 548.36 C 630.74 548.36 623.31 553.00 613.40 531.00 C 603.49 509.00 588.14 475.62 588.14 475.62 Z" fill="#f9f1cb" fill-rule="nonzero" id="path2692" node-id="9" stroke="none" target-height="86.380005" target-width="180.20996" target-x="588.14" target-y="475.62"></path><path d="M 388.51 731.00 C 388.51 731.00 357.82 782.85 345.00 804.07 C 332.18 825.29 321.13 824.90 321.13 824.90 L 329.84 721.67 L 311.28 724.89 L 312.04 682.66 C 312.04 682.66 356.93 637.20 360.14 632.84 C 363.35 628.48 370.94 619.78 370.94 619.78 C 370.94 619.78 380.79 670.16 382.12 691.18 C 383.05 704.62 385.19 717.95 388.51 731.00 Z" fill="#f9f1cb" fill-rule="nonzero" id="path2696" node-id="10" stroke="none" target-height="205.50995" target-width="77.23001" target-x="311.28" target-y="619.78"></path><path d="M 538.53 882.58 C 538.53 882.58 540.41 903.20 563.45 901.87 C 586.49 900.54 624.25 901.87 624.25 901.87 C 624.25 901.87 657.19 909.63 658.25 880.70 C 659.31 851.77 667.35 829.28 662.80 821.51 C 658.25 813.74 644.59 820.70 644.59 820.70 C 644.59 820.70 647.53 864.63 638.43 871.87 C 629.33 879.11 604.14 878.87 584.05 880.70 C 563.96 882.53 538.53 882.58 538.53 882.58 Z" fill="#f9f1cb" fill-rule="nonzero" id="path2698" node-id="11" stroke="none" target-height="95.890015" target-width="128.81995" target-x="538.53" target-y="813.74"></path><path d="M 643.94 558.54 C 643.73 557.13 639.87 543.20 645.94 540.33 C 652.01 537.46 647.15 553.52 653.11 550.10 C 659.07 546.68 663.82 536.78 671.66 534.23 C 679.50 531.68 682.24 531.23 686.53 536.78 C 690.82 542.33 697.11 541.00 703.13 546.78 C 709.15 552.56 714.44 561.24 712.64 561.98 C 710.84 562.72 646.64 562.38 646.28 562.38 C 645.92 562.38 643.94 558.56 643.94 558.56 Z" fill="#9a702d" fill-rule="nonzero" id="path2767" node-id="12" stroke="none" target-height="31.48999" target-width="74.57001" target-x="639.87" target-y="531.23"></path><path d="M 428.85 523.94 C 427.85 523.94 401.01 507.08 387.94 502.54 C 374.87 498.00 374.68 493.64 364.45 501.21 C 354.22 508.78 337.75 526.97 329.45 547.43 C 321.15 567.89 323.20 580.57 311.27 603.11 C 299.34 625.65 282.50 652.23 275.67 658.25 C 268.84 664.27 274.60 669.10 275.13 669.25 C 275.66 669.40 272.25 676.61 244.41 660.51 C 216.57 644.41 196.11 633.05 184.93 624.15 C 173.75 615.25 160.29 621.83 152.93 630.78 C 145.57 639.73 153.93 650.29 161.84 657.86 C 169.75 665.43 225.99 705.54 239.65 708.76 C 253.31 711.98 267.77 712.91 279.83 706.88 C 291.89 700.85 348.88 645.00 348.88 645.00 C 348.88 645.00 369.38 619.82 371.38 615.26 C 373.38 610.70 365.76 611.92 352.63 603.26 C 339.50 594.60 336.70 589.47 343.93 590.14 C 351.16 590.81 358.39 600.45 368.70 600.72 C 379.01 600.99 384.51 607.81 381.02 613.44 C 377.53 619.07 383.70 638.08 386.38 659.51 C 389.06 680.94 396.16 724.06 398.30 743.62 C 400.44 763.18 401.51 774.01 399.90 791.16 C 398.29 808.31 391.47 813.39 399.24 823.43 C 407.01 833.47 444.10 830.43 445.71 810.43 C 447.32 790.43 447.45 766.37 447.45 766.37 L 451.74 675.43 L 451.47 608.43 L 450.93 562.76 C 450.93 562.76 445.58 539.76 428.83 523.95 Z" fill="#72ccd1" fill-rule="nonzero" id="path2788" node-id="13" stroke="none" target-height="339.82996" target-width="306.16998" target-x="145.57" target-y="493.64"></path><path d="M 376.88 486.23 C 376.88 486.23 393.03 475.09 418.74 465.44 C 444.45 455.79 469.51 448.01 477.41 451.21 C 485.31 454.41 482.55 473.43 486.17 486.55 C 489.79 499.67 495.01 516.29 494.34 524.32 C 493.67 532.35 494.01 538.24 497.79 539.76 C 501.57 541.28 502.79 539.57 505.28 547.53 C 507.77 555.49 511.05 559.65 508.28 560.12 C 505.51 560.59 460.65 559.55 455.06 558.70 C 449.47 557.85 445.30 540.23 433.56 526.50 C 421.82 512.77 376.86 486.23 376.86 486.23 Z" fill="#c0a9d1" fill-rule="nonzero" id="path2790" node-id="14" stroke="none" target-height="112.58002" target-width="134.19" target-x="376.86" target-y="448.01"></path><path d="M 530.37 409.35 C 529.37 408.97 501.96 400.45 495.52 415.22 C 489.08 429.99 486.05 440.03 492.52 472.61 C 498.99 505.19 501.61 517.50 501.61 524.70 C 501.61 531.90 509.75 529.81 521.31 527.92 C 532.87 526.03 538.92 523.92 538.73 515.80 C 538.54 507.68 538.54 465.04 538.73 460.49 C 538.92 455.94 544.79 456.70 544.98 465.03 C 545.17 473.36 541.45 483.78 541.45 483.78 C 541.45 483.78 555.78 472.23 552.56 486.78 C 549.34 501.33 546.50 495.69 548.01 511.78 C 549.52 527.87 550.48 532.43 549.34 536.60 C 548.20 540.77 571.88 549.10 582.34 547.96 C 592.80 546.82 614.53 531.48 614.53 531.48 C 614.53 531.48 600.90 496.07 580.44 464.06 C 559.98 432.05 530.44 409.32 530.44 409.32 Z" fill="#c0a9d1" fill-rule="nonzero" id="path2792" node-id="15" stroke="none" target-height="148.64996" target-width="128.48004" target-x="486.05" target-y="400.45"></path><path d="M 394.29 465.39 C 394.29 465.39 393.22 442.62 404.20 429.50 C 415.18 416.38 425.36 414.77 432.60 419.50 C 439.84 424.23 456.17 442.93 456.17 442.93 C 456.17 442.93 411.84 452.84 394.29 465.43 Z" fill="#c0a9d1" fill-rule="nonzero" id="path2794" node-id="16" stroke="none" target-height="50.660004" target-width="62.950012" target-x="393.22" target-y="414.77"></path><path d="M 508.31 395.70 C 503.31 395.64 497.75 396.41 494.48 397.78 C 490.48 399.45 484.21 406.48 481.76 412.01 C 478.94 419.23 477.32 426.87 476.95 434.61 L 476.95 439.36 L 470.20 439.36 C 467.25 439.30 464.31 439.49 461.39 439.92 C 459.75 440.36 458.11 439.02 453.47 433.44 C 442.64 420.44 428.74 411.08 418.34 409.78 C 406.03 408.24 393.76 416.23 389.03 428.87 C 384.92 439.87 383.66 446.55 383.56 458.04 C 383.44 470.78 382.66 472.60 378.32 470.27 C 376.07 469.32 373.66 468.84 371.22 468.84 C 367.76 468.84 366.36 469.36 364.87 471.20 C 362.59 474.01 362.41 478.38 364.41 482.20 L 365.86 485.01 L 359.16 489.60 C 340.98 502.06 322.26 528.73 313.57 554.54 C 312.14 558.80 309.66 567.54 308.05 574.04 C 303.22 593.52 301.58 597.04 280.72 632.04 C 265.95 656.87 265.65 657.29 263.46 655.85 C 262.24 655.05 254.09 651.05 245.35 646.96 C 219.94 635.06 201.35 623.46 191.04 613.15 C 185.45 607.53 181.04 605.15 174.67 604.37 C 169.83 603.76 169.80 603.73 168.01 598.43 C 167.01 595.51 165.74 592.64 165.16 592.06 C 164.58 591.48 164.42 590.17 165.08 588.42 C 166.42 584.89 163.69 577.92 159.91 575.23 C 152.02 569.61 135.17 566.76 119.29 568.36 C 97.80 570.52 70.50 578.52 63.14 584.83 C 58.62 588.70 57.45 591.89 59.14 595.94 C 59.83 597.90 60.15 599.98 60.06 602.06 C 59.77 606.41 62.06 609.73 67.27 612.43 C 71.14 614.43 73.55 614.71 95.00 615.43 C 117.92 616.15 130.00 617.34 132.35 619.08 C 132.99 619.55 135.60 621.61 138.15 623.65 L 142.80 627.37 L 141.22 632.30 C 138.64 640.36 140.04 643.66 148.62 649.75 C 152.53 652.52 159.28 657.97 163.62 661.85 C 188.93 684.52 230.05 710.34 247.00 714.21 C 256.12 716.30 267.77 714.89 278.10 710.46 C 283.66 708.38 295.45 700.02 297.43 698.46 C 306.41 691.65 315.01 684.36 323.21 676.63 C 326.90 673.12 337.21 662.74 337.21 662.74 L 340.46 659.24 C 346.60 652.64 362.62 633.58 366.03 628.84 C 368.93 624.84 369.55 624.36 370.19 625.91 C 371.19 628.39 377.33 668.91 380.49 694.24 C 381.90 705.52 383.25 715.42 383.49 716.24 C 383.73 717.06 384.42 722.92 385.01 729.24 C 385.60 735.56 386.74 745.60 387.54 751.53 C 389.73 767.77 389.41 782.19 386.39 802.47 C 383.75 820.24 383.73 826.97 386.29 830.32 C 386.96 831.18 389.64 832.95 392.29 834.24 C 394.94 835.53 397.04 836.77 397.04 836.98 C 397.04 837.19 394.48 842.58 391.36 848.98 C 386.36 859.32 385.64 861.44 385.26 868.18 C 384.74 877.41 386.63 885.38 392.12 897.18 C 393.63 900.19 394.94 903.30 396.04 906.48 L 396.04 906.48 C 396.04 907.01 380.04 907.31 357.12 907.19 C 329.12 907.05 307.22 907.26 307.22 907.26 L 307.22 907.26 L 307.22 907.26 L 265.51 907.26 C 242.64 907.26 162.51 907.32 110.06 907.51 L 39.43 907.76 C 39.43 907.76 33.87 908.23 33.87 910.26 C 33.87 912.29 39.43 912.76 39.43 912.76 L 99.93 913.26 L 99.93 913.26 C 192.26 914.02 982.71 914.16 1013.43 913.41 L 1040.43 912.76 C 1040.43 912.76 1046.12 912.33 1046.12 910.26 C 1046.12 908.19 1040.43 907.76 1040.43 907.76 L 969.18 907.50 C 930.66 907.36 899.07 906.92 898.00 906.50 L 893.42 906.70 L 893.42 906.70 C 893.42 906.70 828.20 907.14 820.19 906.99 L 805.45 906.71 L 805.45 906.71 L 798.45 906.71 L 798.45 906.71 L 647.00 907.09 L 495.60 907.34 L 451.68 907.34 C 451.68 907.34 449.12 893.34 440.01 890.88 C 435.44 889.65 433.23 878.79 432.47 861.88 C 432.12 854.18 431.60 846.08 431.32 843.88 C 430.82 840.09 430.99 839.77 434.48 837.88 C 439.91 834.98 447.61 825.88 449.55 820.00 C 450.86 816.00 451.07 813.12 450.55 805.93 C 449.67 794.49 449.80 780.03 450.98 755.85 C 454.06 692.99 454.48 676.85 454.44 621.74 L 454.44 561.62 L 454.44 561.62 C 452.97 554.86 460.57 555.16 462.44 555.33 C 462.38 555.07 462.41 554.80 462.54 554.57 C 465.60 547.16 465.65 524.19 462.62 514.65 C 460.56 508.13 456.36 502.82 454.50 504.37 C 453.45 505.24 453.50 506.43 455.05 510.68 C 457.65 518.07 459.38 532.56 458.68 540.93 C 457.98 549.30 456.02 555.85 454.22 555.85 C 453.50 555.85 451.90 553.35 450.66 550.29 C 445.46 537.50 433.35 521.71 421.29 512.03 C 407.86 501.23 389.78 490.37 377.72 485.84 C 372.39 483.84 369.02 480.30 369.02 476.71 C 369.02 474.71 369.51 474.35 372.48 474.35 C 374.50 474.37 376.51 474.75 378.40 475.47 C 380.59 476.47 383.29 475.47 402.69 466.08 C 428.92 453.44 436.03 450.81 450.47 448.39 C 462.27 446.39 477.02 444.88 477.02 445.62 C 477.02 445.87 477.49 448.49 478.02 451.46 C 478.55 454.43 479.73 462.02 480.55 468.34 C 482.40 482.76 485.07 497.06 488.55 511.18 C 490.60 519.13 490.92 522.18 490.38 528.18 C 489.90 533.49 490.09 536.18 491.06 538.02 C 492.42 540.57 498.62 544.35 501.43 544.35 C 502.48 544.35 502.97 545.35 502.97 547.35 C 503.09 549.58 503.58 551.78 504.42 553.85 L 504.42 553.85 L 505.86 558.85 L 505.86 558.85 C 505.86 558.85 512.39 559.07 512.36 559.02 C 510.31 555.73 508.89 548.84 509.14 545.30 C 509.46 540.88 509.48 540.86 514.46 539.58 C 518.40 538.71 522.45 538.49 526.46 538.95 C 532.35 539.51 534.14 540.15 537.96 543.09 C 540.45 545.00 547.96 549.26 554.74 552.54 C 561.52 555.82 566.90 558.68 566.97 558.98 L 566.97 558.98 L 592.47 559.30 L 592.47 559.30 L 598.10 556.99 C 604.93 554.18 612.10 550.05 613.89 547.92 C 615.68 545.79 616.89 546.27 616.89 552.86 L 616.89 560.78 L 622.89 560.78 L 622.89 547.16 L 625.24 549.00 C 626.54 550.00 629.96 552.74 632.83 555.08 L 639.94 560.61 L 650.72 561.45 L 641.92 555.00 C 638.06 552.19 634.75 549.30 634.49 548.64 C 633.85 547.00 637.98 541.19 640.42 540.30 C 642.26 539.95 644.15 540.08 645.92 540.70 C 648.86 541.65 649.42 542.31 649.42 544.70 C 649.42 548.96 651.42 548.91 654.04 544.59 C 657.34 539.23 662.78 533.41 666.04 531.73 C 668.20 530.80 670.53 530.31 672.89 530.29 C 676.26 530.29 677.72 530.98 681.33 534.29 C 683.73 536.50 686.23 539.60 686.88 541.16 C 688.32 544.17 691.31 546.13 694.65 546.26 C 698.41 546.26 704.96 550.53 707.36 554.54 C 708.65 556.71 710.81 561.38 710.62 561.96 L 716.62 561.47 C 715.66 559.66 714.84 557.78 714.16 555.84 C 712.05 547.95 707.27 543.84 697.16 541.27 C 693.61 540.37 692.37 539.33 689.52 534.87 C 684.87 527.60 680.90 524.97 673.86 524.46 C 666.60 523.93 662.33 525.89 656.44 532.46 L 652.00 537.45 L 649.38 535.72 C 643.38 531.78 633.68 534.72 630.74 541.34 C 630.01 542.99 629.17 544.34 628.86 544.34 C 626.86 544.34 621.49 536.18 616.97 526.34 C 614.07 520.02 610.35 511.95 608.71 508.34 C 605.98 502.86 602.98 497.52 599.71 492.34 C 596.38 487.09 590.71 477.62 587.19 471.29 C 583.67 464.96 578.32 456.11 575.39 451.61 L 559.91 430.11 C 549.12 416.68 537.40 406.23 527.82 401.51 C 523.53 399.36 519.06 397.61 514.45 396.27 C 512.43 395.86 510.38 395.65 508.32 395.65 L 508.32 395.65 Z M 506.26 401.65 C 517.97 401.56 529.33 407.70 542.97 421.31 C 558.74 437.05 563.45 443.87 597.53 500.15 C 600.63 505.56 603.42 511.15 605.89 516.88 C 608.22 522.35 611.43 529.38 613.01 532.51 L 615.88 538.19 L 612.21 541.41 C 606.27 546.63 593.54 552.11 584.61 553.30 L 584.61 553.30 C 581.13 553.82 577.63 554.16 574.11 554.30 C 570.92 554.19 558.66 548.75 546.62 542.09 L 537.94 537.29 L 540.29 532.59 C 543.72 525.73 544.05 522.49 542.41 511.64 C 540.19 496.92 540.41 495.18 544.64 489.24 C 548.56 483.77 552.08 474.95 551.23 472.72 C 550.16 469.93 547.93 471.61 544.74 477.61 L 541.43 483.82 L 540.93 468.36 C 540.52 455.58 540.17 452.89 538.93 452.89 C 536.83 452.89 536.16 457.89 535.37 479.39 C 534.92 491.90 535.09 500.64 535.90 506.39 C 538.25 522.96 538.23 524.52 535.73 529.39 L 533.41 533.89 L 524.89 533.54 C 515.25 533.15 508.82 534.54 506.00 537.54 C 503.90 539.80 500.87 539.46 497.60 536.54 C 496.04 535.16 495.87 533.95 496.42 527.90 C 496.97 521.85 496.56 518.90 493.97 508.37 C 489.70 490.27 486.46 471.94 484.27 453.47 C 482.86 441.68 482.75 437.47 483.64 430.47 C 485.04 419.47 488.15 411.26 492.76 406.47 C 495.97 403.11 497.17 402.56 502.60 401.94 C 503.81 401.80 505.03 401.72 506.25 401.71 Z M 414.49 416.55 C 419.26 416.53 423.96 417.71 428.15 420.00 C 433.15 422.67 450.92 438.65 450.92 440.45 C 450.92 440.91 449.69 441.55 448.17 441.88 C 446.65 442.21 441.37 443.58 436.42 444.94 C 430.88 446.46 419.98 451.04 408.02 456.88 L 388.62 466.36 L 389.23 457.86 C 390.23 443.28 394.64 429.35 400.29 422.65 C 403.63 418.70 408.79 416.65 414.49 416.53 Z M 371.81 488.75 C 372.64 488.83 373.45 489.05 374.20 489.41 C 379.45 491.51 392.71 499.15 403.40 506.23 C 412.50 512.23 431.92 529.42 431.92 531.42 C 431.34 532.99 430.52 534.47 429.51 535.81 C 423.84 544.17 423.88 563.25 429.60 574.93 C 432.83 581.54 439.60 587.87 445.21 589.55 L 449.21 590.75 L 448.62 639.75 C 448.26 670.19 447.39 697.53 446.34 711.80 C 445.21 727.08 444.59 748.58 444.48 775.80 C 444.32 815.44 444.24 816.94 442.20 820.87 C 439.40 826.24 433.01 831.87 428.26 833.23 C 418.31 835.99 402.80 833.90 393.61 828.55 C 389.36 826.07 389.25 823.96 392.37 803.34 C 395.37 783.61 395.70 766.70 393.46 750.49 C 392.65 744.61 390.37 726.30 388.41 709.80 C 384.26 675.01 378.69 636.80 375.81 623.49 C 374.25 616.25 374.06 613.86 374.98 612.75 C 376.72 610.66 375.37 608.30 372.43 608.30 C 365.05 608.30 347.87 599.21 340.50 591.41 C 337.29 588.02 335.19 587.47 334.29 589.81 C 332.55 594.34 346.58 605.91 360.40 611.38 C 364.24 612.89 367.54 614.63 367.75 615.24 C 368.66 617.98 338.47 652.66 316.75 673.80 C 294.66 695.31 281.21 704.39 266.18 707.92 C 254.38 710.69 249.53 709.69 232.25 700.92 C 210.55 689.92 178.14 667.92 160.25 652.14 C 156.31 648.65 151.38 644.41 149.25 642.72 L 145.46 639.65 L 146.74 633.93 C 147.81 629.12 148.99 627.15 154.00 621.80 C 160.20 615.18 168.22 610.30 172.90 610.30 C 177.36 610.34 181.64 612.09 184.85 615.19 C 195.40 626.57 212.60 637.71 241.36 651.81 C 254.01 658.01 267.51 665.13 271.36 667.64 C 275.67 670.45 278.71 671.84 279.29 671.27 C 280.74 669.81 278.12 665.87 273.29 662.27 L 268.98 659.04 L 274.30 651.92 C 277.22 648.00 282.98 639.40 287.09 632.80 C 301.72 609.31 308.96 594.03 310.95 582.43 C 312.39 574.07 318.76 555.66 324.47 543.37 C 333.47 524.12 349.06 504.24 363.90 493.24 C 368.54 489.80 370.15 488.67 371.72 488.70 Z M 436.25 538.35 C 438.00 538.35 444.35 549.57 446.85 557.06 C 448.45 561.86 448.93 565.81 448.93 574.31 C 448.93 586.56 448.51 587.18 443.39 582.52 C 436.08 575.87 431.93 565.86 431.93 554.94 C 431.92 547.81 434.39 538.35 436.25 538.35 Z M 125.63 574.58 C 140.28 574.34 153.53 577.48 157.28 582.58 C 158.38 584.08 159.09 585.51 158.85 585.75 C 158.61 585.99 155.71 585.25 152.41 584.10 C 147.78 582.47 143.25 581.90 132.41 581.57 C 114.61 581.02 98.78 583.57 80.91 589.71 C 74.04 592.09 67.68 594.36 66.79 594.71 C 64.54 595.71 63.71 593.04 65.47 590.52 C 68.73 585.88 95.10 577.81 115.36 575.26 C 118.76 574.84 122.19 574.60 125.62 574.54 Z M 128.42 587.94 C 150.97 587.80 158.98 590.94 162.42 601.44 C 163.34 604.21 163.94 606.58 163.75 606.70 C 158.83 609.68 154.34 613.30 150.38 617.47 L 150.38 617.47 C 147.86 620.15 145.72 622.33 145.60 622.31 C 145.48 622.29 142.60 620.17 139.24 617.62 C 133.70 613.44 133.17 612.74 133.99 610.62 C 136.31 604.50 133.89 594.80 130.22 595.56 C 129.10 595.79 128.70 597.56 128.57 603.03 C 128.47 606.97 128.10 610.49 127.75 610.85 C 127.40 611.21 125.45 611.19 123.43 610.85 C 120.54 610.31 119.92 609.85 120.48 608.54 C 122.10 604.84 122.07 600.33 120.41 597.80 C 118.30 594.57 116.76 595.80 116.30 600.96 C 116.10 603.04 115.48 605.06 114.49 606.90 C 113.02 609.14 112.95 609.15 92.20 608.65 C 70.20 608.13 65.89 607.27 65.89 603.41 C 65.89 600.83 69.10 599.29 82.39 595.49 C 103.01 589.60 112.13 588.11 128.39 588.01 Z M 402.42 839.20 C 402.93 839.25 403.43 839.40 403.89 839.62 C 405.27 840.17 410.78 840.68 416.14 840.74 L 425.89 840.84 L 426.01 854.34 C 426.15 870.96 426.19 870.62 423.46 877.34 C 420.35 885.03 421.69 887.75 426.46 883.34 L 428.60 881.34 L 429.88 885.62 C 431.38 890.62 435.48 898.98 436.88 899.83 C 437.15 899.98 437.46 900.02 437.75 899.94 C 438.05 899.86 438.30 899.67 438.45 899.40 C 438.78 898.86 439.32 898.50 439.94 898.40 C 440.94 898.40 444.94 904.66 444.94 906.27 L 444.94 906.27 C 444.94 907.96 415.01 907.84 414.51 906.15 C 410.86 894.28 406.47 882.66 401.36 871.34 C 398.36 864.98 395.94 858.45 395.96 856.84 C 395.98 855.23 397.22 850.47 398.71 846.28 C 400.71 840.73 401.28 839.28 402.47 839.28 Z M 391.42 864.84 L 394.34 870.34 C 395.95 873.34 399.91 882.34 403.14 890.34 C 406.37 898.34 409.28 905.41 409.58 906.09 C 409.96 906.95 409.13 907.34 406.97 907.34 C 403.97 907.34 403.60 906.90 398.89 897.09 C 393.63 886.09 390.59 875.09 391.11 868.74 Z" fill="#483613" fill-rule="nonzero" id="path2625" node-id="17" stroke="none" target-height="518.51996" target-width="1012.25" target-x="33.87" target-y="395.64"></path><path d="M 587.05 135.08 C 570.49 134.93 550.49 143.20 535.15 157.71 C 520.21 171.84 512.62 187.90 512.73 205.14 C 512.73 210.90 513.42 216.31 514.43 219.35 C 518.21 230.73 530.81 235.16 543.91 229.70 C 548.91 227.62 551.25 225.14 559.13 213.60 C 562.97 207.96 568.13 201.53 570.69 199.32 C 575.00 195.53 579.37 193.46 580.55 194.64 C 580.84 194.93 574.81 207.47 567.14 222.51 C 552.40 251.39 547.42 264.26 542.79 285.35 C 539.79 299.19 539.45 322.06 542.21 329.95 C 544.32 336.02 549.70 342.62 554.78 345.40 C 557.78 347.04 559.78 347.31 565.68 346.95 C 573.68 346.46 577.97 344.45 582.35 339.24 C 585.94 334.97 586.86 330.41 586.72 317.34 C 586.56 300.99 588.27 296.34 602.72 274.06 C 610.80 261.49 621.00 243.20 625.00 234.11 C 629.48 223.88 631.85 211.11 631.88 197.11 C 631.88 177.78 629.34 170.22 616.75 152.41 C 610.93 144.18 608.35 141.41 604.39 139.23 C 599.04 136.40 593.07 134.97 587.02 135.06 Z M 586.64 141.36 C 590.20 141.29 593.74 141.81 597.13 142.90 C 607.65 146.48 612.59 155.81 611.62 170.27 C 610.62 184.93 605.39 200.02 587.06 240.85 C 567.96 283.42 561.76 310.48 566.56 330.36 C 567.46 334.10 567.93 337.88 567.56 338.76 C 566.65 341.12 560.78 340.76 556.81 338.07 C 548.88 332.73 546.30 324.20 547.22 306.35 C 547.92 292.72 550.44 280.41 555.80 264.35 C 559.89 252.11 563.33 244.70 578.59 215.10 C 588.29 196.30 590.42 189.71 589.67 180.70 C 588.73 169.39 581.52 163.96 570.55 166.30 C 562.55 168.00 557.65 170.86 551.55 177.30 C 544.34 184.86 539.85 194.24 536.46 208.82 C 532.80 224.54 529.67 228.06 523.59 223.28 C 520.28 220.68 517.93 212.97 517.93 204.73 C 517.93 197.40 521.79 185.46 526.93 177.06 C 539.11 156.97 566.30 141.53 586.70 141.36 Z M 619.55 169.36 C 620.14 169.47 620.87 171.06 621.99 173.88 C 624.16 179.31 624.37 181.35 624.40 196.36 C 624.40 209.41 624.02 214.42 622.50 220.36 C 620.06 229.91 610.17 249.22 596.89 270.36 C 591.19 279.44 585.19 290.01 583.55 293.87 C 580.80 300.33 580.55 302.06 580.00 316.59 C 579.45 331.12 579.26 332.48 577.17 334.59 C 575.28 336.49 574.92 336.59 574.92 335.15 C 574.53 333.11 573.81 331.15 572.78 329.35 C 570.88 325.70 570.71 324.23 571.26 316.35 C 572.71 296.03 579.37 274.85 596.38 236.50 C 609.22 207.57 615.23 190.92 616.99 179.41 C 618.09 172.31 618.68 169.27 619.55 169.41 Z M 573.93 172.36 C 576.40 172.36 578.93 172.69 579.53 173.09 C 581.68 174.53 582.93 178.26 582.93 183.26 L 582.93 188.32 L 579.07 188.32 C 571.76 188.32 564.90 194.32 554.15 210.00 C 548.91 217.67 545.34 221.86 542.82 223.26 C 537.34 226.34 537.22 226.26 539.39 221.06 C 540.80 216.97 541.94 212.80 542.82 208.56 C 547.53 186.97 560.07 172.39 573.93 172.36 Z M 565.76 359.64 C 564.06 359.64 562.20 360.12 558.76 361.28 C 555.32 362.44 551.55 364.28 550.53 365.15 C 543.13 371.82 544.96 387.15 553.82 392.68 C 557.46 394.94 565.64 394.77 569.59 392.36 C 576.22 388.36 580.45 377.69 578.50 369.96 C 577.50 365.96 573.05 361.46 568.93 360.23 C 567.90 359.88 566.81 359.68 565.72 359.64 Z M 565.15 366.46 L 565.15 366.46 C 566.57 366.46 567.65 367.10 569.29 368.39 C 573.97 372.08 572.40 381.39 566.29 386.23 L 566.29 386.23 C 560.84 390.52 554.36 387.23 552.36 379.05 C 551.22 374.42 553.49 370.74 558.92 368.40 C 561.92 367.11 563.71 366.47 565.13 366.47 Z M 633.93 408.85 L 633.93 408.85 C 593.35 408.85 590.18 408.96 586.65 410.71 C 581.57 413.24 576.73 419.07 571.07 429.51 L 566.07 438.70 L 569.82 443.91 L 576.82 431.64 C 585.82 415.90 586.01 415.79 603.72 415.04 C 619.82 414.35 693.58 415.81 717.93 417.29 C 727.01 417.85 743.93 418.29 755.50 418.29 C 779.19 418.29 784.59 419.29 789.36 424.23 C 794.59 429.68 794.24 432.71 784.04 471.50 C 772.04 517.06 764.77 541.55 760.30 551.32 L 756.65 559.32 L 737.37 559.32 C 732.98 559.32 686.98 560.32 678.83 560.27 L 592.43 559.27 L 592.43 559.27 L 566.93 558.94 L 566.93 558.94 C 566.93 559.34 497.63 557.10 497.63 557.10 C 493.12 556.98 483.20 556.74 475.63 556.57 C 465.41 556.34 462.71 556.18 462.39 555.30 L 462.39 555.30 C 460.53 555.13 452.93 554.83 454.39 561.59 L 470.39 561.98 C 479.21 562.21 488.39 562.63 490.78 562.92 L 495.13 563.46 L 494.57 567.63 C 493.95 572.24 493.23 622.86 492.38 721.81 C 491.78 790.99 490.38 868.26 489.28 892.56 L 488.62 907.30 L 495.62 907.30 L 496.23 883.06 C 496.81 859.29 498.42 739.66 499.58 633.01 C 499.90 603.42 500.38 579.42 500.64 579.68 C 500.90 579.94 505.28 589.52 510.39 600.98 C 522.70 628.62 531.88 648.18 543.39 671.41 C 566.39 717.63 569.39 720.34 600.56 722.25 C 633.43 724.25 667.08 725.32 719.99 725.98 L 773.58 726.63 L 774.27 752.72 C 775.41 796.49 777.58 827.00 782.27 865.15 L 784.52 883.48 L 789.65 888.14 C 795.46 893.43 797.87 897.64 798.18 903.07 L 798.41 906.80 L 805.41 906.80 L 804.63 901.38 C 803.58 894.65 800.17 888.51 795.01 884.06 L 791.01 880.45 L 788.46 859.64 C 784.98 831.16 783.14 808.37 781.92 778.82 C 780.77 750.57 780.06 737.98 779.25 731.07 L 778.69 726.32 L 789.03 726.26 C 814.96 726.08 824.13 723.66 828.03 715.99 C 829.90 712.33 830.03 710.74 829.56 701.76 C 829.10 693.76 828.15 689.07 824.97 679.24 C 822.77 672.41 817.77 655.58 813.85 641.83 C 806.38 615.60 798.67 591.30 793.54 577.83 C 791.23 571.77 789.36 568.75 785.81 565.28 L 781.12 560.71 L 785.39 545.27 C 787.74 536.77 790.83 525.55 792.26 520.33 C 793.69 515.11 796.90 503.85 799.39 495.33 C 811.39 454.27 812.89 444.42 808.63 435.21 C 805.95 429.43 804.10 427.28 795.92 420.44 C 787.74 413.60 781.73 412.12 761.35 411.73 C 752.00 411.55 729.28 410.83 710.86 410.13 C 692.44 409.43 657.78 408.84 633.86 408.84 L 633.86 408.84 Z M 799.49 431.85 L 801.71 436.05 C 805.91 444.05 804.24 454.51 792.32 494.85 C 789.88 503.10 785.86 517.49 783.39 526.85 C 780.92 536.21 777.95 546.78 776.79 550.36 C 775.63 553.94 774.18 557.31 773.56 557.88 C 772.56 558.76 765.92 558.79 765.92 557.88 C 765.92 557.70 767.09 554.47 768.52 550.69 C 776.90 528.51 797.46 452.55 798.81 438.82 Z M 506.43 563.35 C 509.83 563.35 511.93 563.78 511.93 564.47 C 511.93 566.57 531.07 613.67 536.84 625.78 C 540.01 632.42 546.00 644.26 550.16 652.09 C 554.32 659.92 560.55 672.71 564.03 680.51 C 571.08 696.31 574.46 700.51 583.85 705.10 C 587.94 707.10 591.00 707.80 596.35 707.95 C 600.24 708.06 609.50 708.86 616.93 709.73 C 644.33 712.93 667.24 713.73 731.93 713.79 C 789.30 713.84 797.51 713.65 806.24 712.08 C 811.63 711.08 817.89 709.39 820.13 708.24 L 824.21 706.16 L 823.57 709.41 C 822.21 716.21 818.88 717.82 803.26 719.24 C 780.26 721.34 645.43 719.39 598.99 716.24 C 571.76 714.42 569.81 712.38 543.99 658.59 C 525.26 619.59 500.93 565.91 500.93 563.59 C 500.93 563.40 503.40 563.26 506.43 563.26 Z M 516.79 564.13 L 541.61 564.73 C 600.49 566.16 711.12 566.51 739.92 565.36 C 767.69 564.25 769.74 564.29 774.84 566.01 C 778.54 567.14 781.80 569.40 784.15 572.48 C 788.54 577.69 792.51 589.58 808.48 645.34 C 813.13 661.58 818.00 678.45 819.31 682.84 C 820.62 687.23 822.00 692.73 822.38 695.03 C 823.05 699.03 822.94 699.30 819.25 701.74 C 816.84 703.33 812.08 704.90 806.42 705.97 C 798.84 707.42 790.06 707.72 750.92 707.88 C 697.32 708.11 657.11 707.07 631.42 704.80 C 621.52 703.93 608.61 702.80 602.73 702.36 C 591.96 701.49 584.73 699.27 580.57 695.56 C 577.49 692.80 574.57 687.67 568.57 674.10 C 565.42 667.10 559.42 654.94 555.23 647.10 C 546.12 630.25 537.99 612.89 530.87 595.10 C 527.10 585.91 522.39 575.17 520.41 571.25 Z M 337.15 662.84 L 334.72 665.27 C 333.39 666.60 332.33 667.66 330.05 669.92 C 330.27 670.78 327.53 705.67 326.38 716.00 L 325.80 721.16 L 319.53 722.25 C 314.63 722.96 309.69 723.32 304.74 723.35 C 297.52 723.35 295.74 723.00 292.82 721.06 C 289.49 718.82 288.54 716.71 289.31 711.88 C 289.47 710.88 289.41 704.70 291.13 702.88 L 290.80 703.09 C 288.31 704.76 285.50 706.56 282.92 708.03 L 282.60 708.23 L 282.52 714.34 C 282.43 721.22 284.40 724.53 290.52 727.72 C 295.23 730.19 306.87 730.95 317.46 729.49 C 321.31 728.96 324.62 728.67 324.81 728.84 C 325.00 729.01 324.00 741.72 322.52 757.00 C 318.63 798.72 313.92 860.24 313.92 869.39 C 313.92 876.15 313.53 878.15 311.48 881.64 C 307.91 887.72 305.73 896.89 306.48 902.57 L 307.11 907.30 L 318.17 907.30 C 316.96 906.99 316.07 905.47 315.34 904.89 C 312.78 902.89 312.64 902.35 313.23 897.28 C 313.89 893.35 315.12 889.55 316.89 885.98 C 318.97 881.93 319.89 878.64 319.89 875.48 C 319.89 866.56 326.62 783.86 332.79 716.87 C 333.86 705.32 335.26 688.44 335.92 679.37 Z M 563.61 791.00 C 549.87 791.00 538.39 791.47 535.42 792.30 C 530.59 793.66 525.32 798.61 524.49 802.57 C 523.30 808.27 521.92 831.91 521.92 846.69 C 521.92 879.24 524.26 882.35 549.42 883.37 C 583.69 884.76 622.05 883.54 631.67 880.77 C 638.09 878.94 643.40 874.42 646.22 868.37 C 647.97 864.37 648.22 860.91 648.68 835.37 C 649.12 810.88 648.96 806.27 647.62 803.08 C 644.54 795.77 639.05 794.35 605.43 792.14 C 593.37 791.34 577.36 790.97 563.61 791.00 Z M 555.73 797.42 C 576.31 797.52 635.21 800.90 638.62 802.31 C 642.50 803.91 643.23 809.65 642.53 832.80 C 641.72 859.13 641.21 863.58 638.53 867.58 C 634.95 872.96 631.01 874.19 613.84 875.29 C 594.47 876.53 566.72 876.95 548.08 876.29 C 534.00 875.80 533.70 875.74 531.41 873.09 C 529.76 871.16 528.89 868.57 528.41 864.09 C 527.55 855.94 529.67 805.59 530.97 803.15 C 533.37 798.68 536.56 797.82 552.13 797.44 C 553.13 797.44 554.33 797.44 555.70 797.44 Z M 187.00 810.91 C 187.00 810.91 187.00 810.91 187.06 811.00 C 187.47 811.00 187.82 811.00 187.58 811.00 L 187.58 811.00 C 187.39 810.97 187.19 810.97 187.00 811.00 Z M 187.06 811.00 C 186.80 811.00 186.50 811.00 186.33 811.00 C 179.81 811.54 179.79 812.86 185.89 844.00 C 188.83 859.00 191.43 872.07 191.67 873.00 C 192.04 874.45 191.56 874.62 188.52 874.12 C 182.30 873.12 181.52 874.67 182.45 885.78 C 183.54 898.38 183.35 905.56 181.87 907.33 C 181.87 907.33 181.87 907.33 181.78 907.33 L 188.28 907.33 C 188.26 907.23 188.26 907.13 188.28 907.03 C 189.17 904.20 189.22 898.03 188.40 889.03 C 187.55 879.66 187.99 879.19 193.26 883.82 C 197.66 887.68 199.94 893.62 200.17 901.82 L 200.33 907.31 L 206.86 907.31 L 206.86 902.48 C 206.86 894.48 204.86 887.69 200.86 882.10 C 198.29 878.53 197.41 875.74 195.76 866.02 C 194.66 859.56 192.44 847.14 190.82 838.42 C 189.20 829.70 187.82 821.42 187.82 819.96 C 187.82 817.44 188.02 817.53 192.82 822.30 C 199.23 828.39 204.18 835.86 207.28 844.14 C 210.77 853.45 211.85 858.99 213.16 874.14 C 213.90 882.72 214.70 887.22 215.52 887.49 C 217.58 888.17 218.78 883.11 218.78 873.64 C 218.78 863.10 220.99 855.70 223.09 859.24 C 223.85 860.52 224.26 866.06 224.26 874.74 C 224.26 887.54 224.06 888.74 220.76 898.24 L 217.61 907.24 L 224.27 907.24 C 224.71 906.03 225.27 903.40 226.15 900.83 C 233.47 880.45 231.69 850.71 223.15 850.71 C 221.57 850.74 220.03 851.26 218.76 852.21 C 217.24 853.59 216.95 853.21 215.36 847.48 C 212.55 837.00 207.21 828.10 198.34 819.00 C 195.07 815.71 191.26 813.00 187.07 811.00 Z M 612.64 817.72 L 612.64 817.72 C 607.41 817.67 600.97 817.84 593.40 818.25 C 582.95 818.81 567.28 819.57 558.57 819.94 C 542.19 820.64 539.99 821.33 542.91 824.85 C 544.46 826.71 547.44 826.71 592.82 824.85 C 628.38 823.39 632.58 822.85 628.62 819.85 C 626.79 818.50 621.37 817.77 612.62 817.68 Z M 897.38 826.36 C 884.64 826.36 862.04 849.99 852.30 873.50 L 848.61 882.42 L 846.21 878.14 C 843.27 872.89 841.36 871.36 837.75 871.36 C 835.63 871.36 834.55 872.14 833.23 874.61 C 830.94 878.91 830.97 894.87 833.29 901.36 C 834.17 903.83 835.16 907.15 835.16 907.15 L 841.75 907.15 C 841.82 907.15 841.65 907.09 841.63 907.07 C 838.73 902.29 836.34 878.37 838.76 878.37 C 839.24 878.37 841.26 880.85 843.26 883.85 C 846.39 888.56 846.92 890.16 846.92 895.10 C 846.92 904.94 850.16 906.43 851.43 897.20 C 853.75 880.33 866.73 856.38 880.70 843.20 C 887.60 836.69 895.95 831.66 897.88 832.85 C 900.71 834.60 898.33 844.33 889.49 867.14 C 886.56 874.69 883.15 883.99 881.90 887.79 C 880.55 891.81 878.65 895.62 876.26 899.12 C 874.41 901.54 872.90 904.39 872.90 905.45 C 872.90 905.78 872.73 906.98 872.73 906.98 L 872.73 906.98 L 877.95 906.98 C 877.92 906.82 877.91 906.67 877.90 906.51 C 877.90 905.13 888.74 895.67 891.00 895.07 C 893.26 894.47 894.20 897.14 893.72 902.99 L 893.40 906.87 L 893.40 906.87 L 897.98 906.67 L 897.98 906.67 C 897.98 906.26 898.46 903.96 898.98 901.55 C 900.88 893.35 897.10 887.55 890.70 888.82 C 888.55 889.25 887.85 889.07 888.20 888.17 C 888.46 887.48 891.71 879.28 895.41 869.93 C 903.25 850.12 906.41 838.78 905.47 833.78 C 904.58 829.02 901.72 826.42 897.40 826.42 Z M 581.56 847.36 C 579.28 847.36 575.84 847.46 570.65 847.67 C 555.01 848.30 543.09 849.81 541.52 851.36 C 541.01 852.12 540.92 853.10 541.29 853.94 C 541.87 855.44 543.06 855.56 551.67 854.94 C 565.75 853.94 581.05 852.21 583.67 851.23 C 584.83 850.86 585.69 849.89 585.92 848.70 C 585.92 847.70 585.37 847.35 581.58 847.32 Z" fill="#efca87" fill-rule="nonzero" id="path2885" node-id="18" stroke="none" target-height="772.4" target-width="726.62" target-x="179.79" target-y="134.93"></path></svg>